<svg width="20" height="20" viewBox="0 0 20 20" fill="none" xmlns="http://www.w3.org/2000/svg">
<path d="M9.99724 15.2933C7.07867 15.2933 4.70312 12.9185 4.70312 9.9992C4.70312 7.07987 7.07867 4.70508 9.99724 4.70508C12.9158 4.70508 15.2914 7.07987 15.2914 9.9992C15.2914 12.9185 12.9158 15.2933 9.99724 15.2933ZM9.99724 6.21768C7.91212 6.21768 6.21573 7.91407 6.21573 9.9992C6.21573 12.0843 7.91212 13.7807 9.99724 13.7807C12.0824 13.7807 13.7788 12.0843 13.7788 9.9992C13.7788 7.91407 12.0824 6.21768 9.99724 6.21768Z" fill="white"/>
<path d="M15.8796 5.29435C16.5293 5.29435 17.0561 4.76762 17.0561 4.11788C17.0561 3.46813 16.5293 2.94141 15.8796 2.94141C15.2298 2.94141 14.7031 3.46813 14.7031 4.11788C14.7031 4.76762 15.2298 5.29435 15.8796 5.29435Z" fill="white"/>
<path d="M14.6154 20H5.38462C2.41615 20 0 17.5846 0 14.6154V5.38462C0 2.41538 2.41615 0 5.38462 0H14.6154C17.5838 0 20 2.41538 20 5.38462V14.6154C20 17.5846 17.5838 20 14.6154 20ZM5.38462 1.53846C3.26385 1.53846 1.53846 3.26385 1.53846 5.38462V14.6154C1.53846 16.7362 3.26385 18.4615 5.38462 18.4615H14.6154C16.7362 18.4615 18.4615 16.7362 18.4615 14.6154V5.38462C18.4615 3.26385 16.7362 1.53846 14.6154 1.53846H5.38462Z" fill="white"/>
</svg>
