<svg width="20" height="19" viewBox="0 0 20 19" fill="none" xmlns="http://www.w3.org/2000/svg">
<path d="M10 0C4.47712 0 0 3.51184 0 7.84385C0 10.6446 1.87173 13.1021 4.68731 14.4898C4.53413 15.0153 3.70298 17.8707 3.6699 18.095C3.6699 18.095 3.65 18.2635 3.75971 18.3278C3.86942 18.3921 3.99846 18.3422 3.99846 18.3422C4.31308 18.2985 7.64683 15.9688 8.22385 15.5643C8.80029 15.6455 9.39385 15.6877 10 15.6877C15.5229 15.6877 20 12.176 20 7.84385C20 3.51184 15.5229 0 10 0Z" fill="white"/>
<path d="M4.61074 10.6792C4.29909 10.6792 4.04565 10.4371 4.04565 10.1395V6.78242H3.16392C2.85811 6.78242 2.60938 6.53415 2.60938 6.2291C2.60938 5.92404 2.8582 5.67578 3.16392 5.67578H6.05756C6.36336 5.67578 6.6121 5.92404 6.6121 6.2291C6.6121 6.53415 6.36327 6.78242 6.05756 6.78242H5.17583V10.1395C5.17583 10.4371 4.92238 10.6792 4.61074 10.6792ZM9.56582 10.6718C9.33018 10.6718 9.14992 10.5762 9.09558 10.4223L8.81576 9.68971L7.09261 9.68962L6.81261 10.4226C6.75846 10.5762 6.57829 10.6718 6.34264 10.6718C6.21869 10.672 6.09617 10.6454 5.98343 10.5939C5.82766 10.522 5.67791 10.3244 5.84951 9.79143L7.2012 6.23362C7.29642 5.96304 7.58565 5.68426 7.95372 5.67588C8.32281 5.68416 8.61205 5.96304 8.70745 6.23418L10.0586 9.79039C10.2306 10.3246 10.0808 10.5223 9.92503 10.594C9.81227 10.6454 9.68976 10.6719 9.56582 10.6718ZM8.51862 8.68875L7.95419 7.08531L7.38976 8.68875H8.51862ZM10.968 10.5968C10.6694 10.5968 10.4265 10.3643 10.4265 10.0788V6.24087C10.4265 5.92922 10.6853 5.67578 11.0033 5.67578C11.3214 5.67578 11.5802 5.92922 11.5802 6.24087V9.56078H12.781C13.0796 9.56078 13.3225 9.79322 13.3225 10.0788C13.3225 10.3643 13.0796 10.5968 12.781 10.5968H10.968ZM14.1075 10.6718C13.7958 10.6718 13.5424 10.4184 13.5424 10.1067V6.24087C13.5424 5.92922 13.7958 5.67578 14.1075 5.67578C14.4191 5.67578 14.6725 5.92922 14.6725 6.24087V7.45544L16.2491 5.87884C16.3302 5.79775 16.4417 5.7531 16.5626 5.7531C16.7037 5.7531 16.8453 5.81395 16.9515 5.91999C17.0504 6.01889 17.1095 6.14613 17.1176 6.27826C17.1258 6.41153 17.0814 6.53368 16.9929 6.62231L15.7052 7.90987L17.0961 9.75263C17.141 9.81174 17.1737 9.87919 17.1924 9.95106C17.211 10.0229 17.2152 10.0978 17.2046 10.1713C17.1945 10.2448 17.17 10.3156 17.1323 10.3796C17.0947 10.4435 17.0448 10.4994 16.9854 10.5439C16.8876 10.6182 16.7682 10.6583 16.6455 10.658C16.5579 10.6584 16.4715 10.6383 16.3931 10.5993C16.3147 10.5603 16.2465 10.5035 16.1941 10.4334L14.8688 8.67745L14.6727 8.87353V10.1065C14.6726 10.2563 14.6129 10.4 14.507 10.506C14.401 10.612 14.2573 10.6716 14.1075 10.6718Z" fill="#A4A4A4"/>
</svg>
